<mxfile host="app.diagrams.net" modified="2021-09-10T12:32:36.538Z" agent="5.0 (Windows NT 10.0; Win64; x64) AppleWebKit/537.36 (KHTML, like Gecko) Chrome/93.0.4577.63 Safari/537.36" etag="_ZABqwS9NaR-lWg86QHe" version="15.1.4" type="github">
  <diagram id="vKUZgMPLqi8OBP3FiJJd" name="Page-1">
    <mxGraphModel dx="1422" dy="800" grid="1" gridSize="10" guides="1" tooltips="1" connect="1" arrows="1" fold="1" page="1" pageScale="1" pageWidth="850" pageHeight="1100" math="0" shadow="0">
      <root>
        <mxCell id="0" />
        <mxCell id="1" parent="0" />
        <mxCell id="4STaAQaD573860k0v85m-4" style="edgeStyle=orthogonalEdgeStyle;rounded=0;orthogonalLoop=1;jettySize=auto;html=1;exitX=0.5;exitY=1;exitDx=0;exitDy=0;entryX=0.5;entryY=0;entryDx=0;entryDy=0;" edge="1" parent="1" target="4STaAQaD573860k0v85m-3">
          <mxGeometry relative="1" as="geometry">
            <mxPoint x="420" y="120" as="sourcePoint" />
          </mxGeometry>
        </mxCell>
        <mxCell id="4STaAQaD573860k0v85m-7" style="edgeStyle=orthogonalEdgeStyle;rounded=0;orthogonalLoop=1;jettySize=auto;html=1;exitX=0;exitY=0.5;exitDx=0;exitDy=0;entryX=0.5;entryY=0;entryDx=0;entryDy=0;" edge="1" parent="1" source="4STaAQaD573860k0v85m-3" target="4STaAQaD573860k0v85m-5">
          <mxGeometry relative="1" as="geometry" />
        </mxCell>
        <mxCell id="4STaAQaD573860k0v85m-13" value="NO" style="edgeLabel;html=1;align=center;verticalAlign=middle;resizable=0;points=[];" vertex="1" connectable="0" parent="4STaAQaD573860k0v85m-7">
          <mxGeometry x="0.05" relative="1" as="geometry">
            <mxPoint as="offset" />
          </mxGeometry>
        </mxCell>
        <mxCell id="4STaAQaD573860k0v85m-8" style="edgeStyle=orthogonalEdgeStyle;rounded=0;orthogonalLoop=1;jettySize=auto;html=1;exitX=1;exitY=0.5;exitDx=0;exitDy=0;entryX=0.5;entryY=0;entryDx=0;entryDy=0;" edge="1" parent="1" source="4STaAQaD573860k0v85m-3" target="4STaAQaD573860k0v85m-6">
          <mxGeometry relative="1" as="geometry" />
        </mxCell>
        <mxCell id="4STaAQaD573860k0v85m-14" value="YES" style="edgeLabel;html=1;align=center;verticalAlign=middle;resizable=0;points=[];" vertex="1" connectable="0" parent="4STaAQaD573860k0v85m-8">
          <mxGeometry x="-0.0833" y="1" relative="1" as="geometry">
            <mxPoint as="offset" />
          </mxGeometry>
        </mxCell>
        <mxCell id="4STaAQaD573860k0v85m-3" value="Have an account ?" style="rhombus;whiteSpace=wrap;html=1;fillColor=#d5e8d4;strokeColor=#82b366;" vertex="1" parent="1">
          <mxGeometry x="380" y="160" width="80" height="80" as="geometry" />
        </mxCell>
        <mxCell id="4STaAQaD573860k0v85m-9" style="edgeStyle=orthogonalEdgeStyle;rounded=0;orthogonalLoop=1;jettySize=auto;html=1;exitX=1;exitY=0.5;exitDx=0;exitDy=0;entryX=0;entryY=0.5;entryDx=0;entryDy=0;" edge="1" parent="1" source="4STaAQaD573860k0v85m-5" target="4STaAQaD573860k0v85m-6">
          <mxGeometry relative="1" as="geometry" />
        </mxCell>
        <mxCell id="4STaAQaD573860k0v85m-5" value="REGISTER" style="rounded=0;whiteSpace=wrap;html=1;fillColor=#fff2cc;strokeColor=#d6b656;" vertex="1" parent="1">
          <mxGeometry x="240" y="240" width="120" height="60" as="geometry" />
        </mxCell>
        <mxCell id="4STaAQaD573860k0v85m-11" style="edgeStyle=orthogonalEdgeStyle;rounded=0;orthogonalLoop=1;jettySize=auto;html=1;exitX=0.5;exitY=1;exitDx=0;exitDy=0;entryX=0.5;entryY=0;entryDx=0;entryDy=0;" edge="1" parent="1" source="4STaAQaD573860k0v85m-6" target="4STaAQaD573860k0v85m-10">
          <mxGeometry relative="1" as="geometry" />
        </mxCell>
        <mxCell id="4STaAQaD573860k0v85m-6" value="LOGIN" style="rounded=0;whiteSpace=wrap;html=1;fillColor=#fff2cc;strokeColor=#d6b656;" vertex="1" parent="1">
          <mxGeometry x="480" y="240" width="120" height="60" as="geometry" />
        </mxCell>
        <mxCell id="4STaAQaD573860k0v85m-36" style="edgeStyle=orthogonalEdgeStyle;rounded=0;orthogonalLoop=1;jettySize=auto;html=1;exitX=0.5;exitY=1;exitDx=0;exitDy=0;entryX=0.5;entryY=0;entryDx=0;entryDy=0;" edge="1" parent="1" source="4STaAQaD573860k0v85m-10" target="4STaAQaD573860k0v85m-32">
          <mxGeometry relative="1" as="geometry" />
        </mxCell>
        <mxCell id="4STaAQaD573860k0v85m-10" value="Select Laundry Services" style="rounded=0;whiteSpace=wrap;html=1;fillColor=#fff2cc;strokeColor=#d6b656;" vertex="1" parent="1">
          <mxGeometry x="360" y="340" width="120" height="60" as="geometry" />
        </mxCell>
        <mxCell id="4STaAQaD573860k0v85m-43" style="edgeStyle=orthogonalEdgeStyle;rounded=0;orthogonalLoop=1;jettySize=auto;html=1;exitX=0;exitY=0.5;exitDx=0;exitDy=0;entryX=0;entryY=0.5;entryDx=0;entryDy=0;" edge="1" parent="1" source="4STaAQaD573860k0v85m-12" target="4STaAQaD573860k0v85m-10">
          <mxGeometry relative="1" as="geometry">
            <Array as="points">
              <mxPoint x="270" y="590" />
              <mxPoint x="270" y="370" />
            </Array>
          </mxGeometry>
        </mxCell>
        <mxCell id="4STaAQaD573860k0v85m-44" value="NO" style="edgeLabel;html=1;align=center;verticalAlign=middle;resizable=0;points=[];" vertex="1" connectable="0" parent="4STaAQaD573860k0v85m-43">
          <mxGeometry x="0.1714" y="-3" relative="1" as="geometry">
            <mxPoint as="offset" />
          </mxGeometry>
        </mxCell>
        <mxCell id="4STaAQaD573860k0v85m-45" style="edgeStyle=orthogonalEdgeStyle;rounded=0;orthogonalLoop=1;jettySize=auto;html=1;exitX=0.5;exitY=1;exitDx=0;exitDy=0;entryX=0.5;entryY=0;entryDx=0;entryDy=0;" edge="1" parent="1" source="4STaAQaD573860k0v85m-12" target="4STaAQaD573860k0v85m-18">
          <mxGeometry relative="1" as="geometry" />
        </mxCell>
        <mxCell id="4STaAQaD573860k0v85m-47" style="edgeStyle=orthogonalEdgeStyle;rounded=0;orthogonalLoop=1;jettySize=auto;html=1;exitX=0;exitY=1;exitDx=0;exitDy=0;entryX=1;entryY=0.5;entryDx=0;entryDy=0;" edge="1" parent="1" source="4STaAQaD573860k0v85m-12" target="4STaAQaD573860k0v85m-46">
          <mxGeometry relative="1" as="geometry" />
        </mxCell>
        <mxCell id="4STaAQaD573860k0v85m-12" value="Confirm Booking" style="rhombus;whiteSpace=wrap;html=1;fillColor=#d5e8d4;strokeColor=#82b366;" vertex="1" parent="1">
          <mxGeometry x="380" y="550" width="80" height="80" as="geometry" />
        </mxCell>
        <mxCell id="4STaAQaD573860k0v85m-23" style="edgeStyle=orthogonalEdgeStyle;rounded=0;orthogonalLoop=1;jettySize=auto;html=1;exitX=0.5;exitY=1;exitDx=0;exitDy=0;" edge="1" parent="1" source="4STaAQaD573860k0v85m-18" target="4STaAQaD573860k0v85m-21">
          <mxGeometry relative="1" as="geometry" />
        </mxCell>
        <mxCell id="4STaAQaD573860k0v85m-18" value="RESERVE" style="rounded=0;whiteSpace=wrap;html=1;fillColor=#fff2cc;strokeColor=#d6b656;" vertex="1" parent="1">
          <mxGeometry x="360" y="650" width="120" height="60" as="geometry" />
        </mxCell>
        <mxCell id="4STaAQaD573860k0v85m-21" value="END" style="ellipse;whiteSpace=wrap;html=1;fillColor=#dae8fc;strokeColor=#6c8ebf;" vertex="1" parent="1">
          <mxGeometry x="375" y="750" width="90" height="50" as="geometry" />
        </mxCell>
        <mxCell id="4STaAQaD573860k0v85m-22" value="START" style="ellipse;whiteSpace=wrap;html=1;fillColor=#dae8fc;strokeColor=#6c8ebf;" vertex="1" parent="1">
          <mxGeometry x="375" y="80" width="90" height="50" as="geometry" />
        </mxCell>
        <mxCell id="4STaAQaD573860k0v85m-37" style="edgeStyle=orthogonalEdgeStyle;rounded=0;orthogonalLoop=1;jettySize=auto;html=1;exitX=1;exitY=0.5;exitDx=0;exitDy=0;" edge="1" parent="1" source="4STaAQaD573860k0v85m-32" target="4STaAQaD573860k0v85m-34">
          <mxGeometry relative="1" as="geometry" />
        </mxCell>
        <mxCell id="4STaAQaD573860k0v85m-38" value="DELIVERY" style="edgeLabel;html=1;align=center;verticalAlign=middle;resizable=0;points=[];" vertex="1" connectable="0" parent="4STaAQaD573860k0v85m-37">
          <mxGeometry x="-0.0034" relative="1" as="geometry">
            <mxPoint x="1" as="offset" />
          </mxGeometry>
        </mxCell>
        <mxCell id="4STaAQaD573860k0v85m-41" style="edgeStyle=orthogonalEdgeStyle;rounded=0;orthogonalLoop=1;jettySize=auto;html=1;exitX=0.5;exitY=1;exitDx=0;exitDy=0;entryX=0.5;entryY=0;entryDx=0;entryDy=0;" edge="1" parent="1" source="4STaAQaD573860k0v85m-32" target="4STaAQaD573860k0v85m-12">
          <mxGeometry relative="1" as="geometry" />
        </mxCell>
        <mxCell id="4STaAQaD573860k0v85m-42" value="PICK UP" style="edgeLabel;html=1;align=center;verticalAlign=middle;resizable=0;points=[];" vertex="1" connectable="0" parent="4STaAQaD573860k0v85m-41">
          <mxGeometry x="-0.2444" y="-1" relative="1" as="geometry">
            <mxPoint as="offset" />
          </mxGeometry>
        </mxCell>
        <mxCell id="4STaAQaD573860k0v85m-32" value="Pick up&lt;br&gt;or&lt;br&gt;Delivery" style="rhombus;whiteSpace=wrap;html=1;fillColor=#d5e8d4;strokeColor=#82b366;" vertex="1" parent="1">
          <mxGeometry x="367.5" y="430" width="105" height="80" as="geometry" />
        </mxCell>
        <mxCell id="4STaAQaD573860k0v85m-39" style="edgeStyle=orthogonalEdgeStyle;rounded=0;orthogonalLoop=1;jettySize=auto;html=1;exitX=0;exitY=0.5;exitDx=0;exitDy=0;" edge="1" parent="1" source="4STaAQaD573860k0v85m-34" target="4STaAQaD573860k0v85m-12">
          <mxGeometry relative="1" as="geometry" />
        </mxCell>
        <mxCell id="4STaAQaD573860k0v85m-34" value="Ask for delivery place" style="rounded=0;whiteSpace=wrap;html=1;fillColor=#fff2cc;strokeColor=#d6b656;" vertex="1" parent="1">
          <mxGeometry x="580" y="560" width="120" height="60" as="geometry" />
        </mxCell>
        <mxCell id="4STaAQaD573860k0v85m-46" value="&lt;h1&gt;&lt;br&gt;&lt;/h1&gt;&lt;p&gt;Does customer need to pay 50% to be able to book laundry services ?&lt;/p&gt;" style="text;html=1;strokeColor=none;fillColor=none;spacing=5;spacingTop=-20;whiteSpace=wrap;overflow=hidden;rounded=0;" vertex="1" parent="1">
          <mxGeometry x="70" y="560" width="190" height="120" as="geometry" />
        </mxCell>
      </root>
    </mxGraphModel>
  </diagram>
</mxfile>
